# xmcd CD database file
#
# Track frame offsets:
#	150
#	15435
#	30542
#	45167
#	57762
#	72435
#	85787
#	99210
#	116485
#	129727
#	146557
#
# Disc length: 2148 seconds
#
# Revision: 0
# Processed by: cddbd v1.5.2PL0 Copyright (c) Steve Scherf et al.
# Submitted via: CDex 1.70beta2
#
DISCID=8308620b
DTITLE=Ian Eaton and Battle River - Born Country
DYEAR=1991
DGENRE=Country
TTITLE0=Born Country
TTITLE1=California By Night
TTITLE2=Small Town Girl
TTITLE3=Hangin' Hearts Lake
TTITLE4=Lost Memories
TTITLE5=I Wonder What The Rich Folks Are Doin' Tonight
TTITLE6=You Can't Buy Your Way Out Of The Blues
TTITLE7=If Leavin' Him's So Easy
TTITLE8=Steady As She Goes
TTITLE9=Colorful Life
TTITLE10=Hold On
EXTD=YEAR: 1991
EXTT0=
EXTT1=
EXTT2=
EXTT3=
EXTT4=
EXTT5=
EXTT6=
EXTT7=
EXTT8=
EXTT9=
EXTT10=
PLAYORDER=
